<?xml version="1.0" encoding="utf-8"?>
<!-- Generator: Adobe Illustrator 13.0.2, SVG Export Plug-In . SVG Version: 6.00 Build 14948)  -->
<!DOCTYPE svg PUBLIC "-//W3C//DTD SVG 1.1//EN" "http://www.w3.org/Graphics/SVG/1.1/DTD/svg11.dtd">
<svg version="1.1" id="Layer_1" xmlns="http://www.w3.org/2000/svg" xmlns:xlink="http://www.w3.org/1999/xlink" x="0px" y="0px"
	 width="723.977px" height="595.448px" viewBox="0 0 723.977 595.448" enable-background="new 0 0 723.977 595.448"
	 xml:space="preserve">
<path fill="#282A1F" d="M697.067,447.467l-0.607-12.012c9.307-3.975,18.479-8.695,27.518-14.15
	c-0.744-5.656-2.566-11.107-3.902-16.643c-10.637-1.442-21.406-1.916-31.658-1.629c-1.369-3.768-3.371-7.27-5.035-10.914
	c-1.809-3.576-4.084-6.898-6.107-10.355c6.498-7.945,12.299-16.319,17.773-25.367c-3.264-4.68-7.428-8.609-11.18-12.879
	c-10.07,3.676-19.822,8.26-28.77,13.275c-2.982-2.676-6.355-4.884-9.52-7.34c-3.283-2.289-6.811-4.226-10.207-6.35
	c2.057-10.009,3.336-20.158,3.98-30.711c-5.076-2.614-10.604-4.188-15.924-6.229c-7.219,7.928-13.727,16.539-19.307,25.143
	c-3.875-1.044-7.903-1.336-11.848-2.035c-3.959-0.641-7.994-0.531-11.986-0.828c-2.84-10.072-6.42-19.403-10.735-29.062
	c-5.688,0.111-11.319,0.992-16.95,1.902c-2.756,10.173-4.516,20.893-5.448,31.201c-3.932,0.85-7.684,2.275-11.439,3.68
	c-3.827,1.23-7.392,3.086-11.007,4.822c-7.168-7.52-14.823-14.373-23.07-20.751c-4.96,2.823-9.611,6.094-14.104,9.6
	c2.328,10.312,5.729,20.546,9.724,30.138c-3.075,2.59-5.739,5.588-8.415,8.573c-2.82,2.864-5.1,6.178-7.516,9.374
	c-9.844-3.348-19.759-5.852-30.051-7.702c-3.104,4.788-5.667,9.874-8.059,15.058c6.823,8.055,14.619,15.57,22.594,22.2
	c-1.527,3.72-2.487,7.613-3.455,11.505c-1.156,3.852-1.676,7.836-2.268,11.803c-10.24,1.633-20.331,4.032-30.19,7.188
	c-0.384,5.676-0.556,11.348-0.101,17.023c9.939,3.939,19.936,7.008,30.291,9.159c0.592,3.964,1.111,7.948,2.268,11.8
	c0.968,3.891,1.928,7.787,3.455,11.507c-8.079,6.1-16.271,13.067-23.441,20.415c2.491,5.123,4.768,10.375,7.883,15.15
	c10.731-1.195,20.891-3.064,31.074-6.012c2.416,3.195,4.695,6.512,7.516,9.375c2.676,2.984,5.344,5.984,8.415,8.576
	c-4.336,9.167-8.335,19.103-11.3,28.946c4.561,3.406,9.023,6.951,13.992,9.764c8.938-6.004,17.102-12.408,24.758-19.729
	c3.615,1.736,7.18,3.592,11.007,4.824c3.756,1.404,7.508,2.828,11.439,3.68c0.437,10.111,1.528,20.799,3.499,30.891
	c5.633,0.787,11.244,2.016,16.932,2.107c5.1-9.615,9.336-18.895,12.703-28.957c3.996-0.297,8.027-0.189,11.986-0.828
	c3.944-0.701,7.973-0.992,11.848-2.037c5.084,8.783,10.904,17.398,17.436,25.768c5.371-1.885,10.803-3.705,16.01-6.004
	c0.072-10.879-0.615-21.322-2.195-31.559c3.396-2.123,6.924-4.063,10.207-6.351c3.164-2.457,6.537-4.664,9.52-7.34
	c8.588,5.403,17.744,10.319,27.402,14.69c3.867-4.155,7.84-8.259,11.359-12.719c-4.992-9.671-10.402-18.575-16.586-26.942
	c2.023-3.459,4.299-6.779,6.107-10.355c1.664-3.644,3.666-7.146,5.035-10.915c10.115,0.8,20.51,0.896,31.102,0.269
	c1.508-5.488,3.064-11.004,4.152-16.588c-8.904-6.23-17.982-11.603-27.211-16.102L697.067,447.467z"/>
<g>
	<path fill="none" d="M315.771,363.859c-1.684-4.071-4.184-7.81-7.303-10.935c-3.125-3.12-6.863-5.619-10.935-7.303
		c-4.07-1.689-8.468-2.557-12.893-2.566c-4.424,0.01-8.822,0.877-12.893,2.566c-4.071,1.684-7.81,4.183-10.934,7.303
		c-3.12,3.125-5.619,6.863-7.303,10.935c-1.689,4.071-2.556,8.469-2.566,12.893c0.01,4.425,0.877,8.822,2.566,12.893
		c1.684,4.072,4.183,7.811,7.303,10.935c3.125,3.12,6.863,5.62,10.934,7.304c4.071,1.689,8.469,2.557,12.893,2.566
		c4.424-0.01,8.822-0.877,12.893-2.566c4.072-1.684,7.81-4.184,10.935-7.304c3.119-3.124,5.619-6.862,7.303-10.935
		c1.689-4.07,2.557-8.468,2.566-12.893C318.328,372.328,317.461,367.931,315.771,363.859z"/>
	<path fill="#282A1F" d="M323.203,376.752l-0.201-3.953c1.443-0.575,2.881-1.2,4.311-1.876c-0.23-1.724-0.525-3.435-1.016-5.108
		c-1.584-0.078-3.156-0.107-4.715-0.088c-0.367-1.266-0.883-2.485-1.316-3.73c-0.523-1.209-1.133-2.384-1.693-3.577
		c1.119-1.091,2.199-2.217,3.262-3.392c-0.869-1.507-1.812-2.963-2.898-4.323c-1.492,0.535-2.953,1.111-4.385,1.726
		c-0.848-1.008-1.764-1.962-2.643-2.944c-0.982-0.88-1.938-1.795-2.945-2.644c0.615-1.431,1.191-2.893,1.727-4.384
		c-1.359-1.086-2.816-2.029-4.324-2.898c-1.174,1.062-2.301,2.143-3.391,3.262c-1.193-0.562-2.367-1.17-3.577-1.693
		c-1.244-0.435-2.465-0.95-3.73-1.317c0.02-1.558-0.01-3.131-0.088-4.715c-1.673-0.49-3.385-0.785-5.109-1.015
		c-0.675,1.43-1.3,2.867-1.875,4.31l-3.953-0.2l-3.953,0.2c-0.575-1.442-1.201-2.88-1.876-4.31
		c-1.724,0.229-3.436,0.524-5.108,1.015c-0.079,1.584-0.107,3.157-0.088,4.715c-1.266,0.367-2.485,0.883-3.73,1.317
		c-1.209,0.523-2.383,1.132-3.577,1.693c-1.09-1.119-2.217-2.199-3.392-3.262c-1.507,0.87-2.963,1.812-4.323,2.898
		c0.535,1.491,1.111,2.953,1.726,4.384c-1.008,0.85-1.961,1.764-2.945,2.644c-0.879,0.982-1.794,1.937-2.644,2.944
		c-1.43-0.614-2.892-1.19-4.384-1.726c-1.085,1.36-2.028,2.816-2.898,4.324c1.062,1.174,2.143,2.301,3.263,3.392
		c-0.562,1.192-1.17,2.367-1.694,3.576c-0.435,1.245-0.95,2.465-1.317,3.73c-1.558-0.019-3.13,0.01-4.715,0.089
		c-0.49,1.673-0.785,3.384-1.015,5.108c1.43,0.675,2.867,1.3,4.31,1.875l-0.201,3.953l0.201,3.953
		c-1.442,0.576-2.88,1.201-4.31,1.877c0.23,1.724,0.524,3.436,1.015,5.107c1.584,0.079,3.157,0.108,4.715,0.089
		c0.367,1.266,0.883,2.485,1.317,3.73c0.524,1.209,1.132,2.384,1.694,3.576c-1.12,1.091-2.2,2.218-3.262,3.392
		c0.87,1.508,1.813,2.964,2.898,4.324c1.492-0.535,2.954-1.111,4.384-1.726c0.85,1.008,1.764,1.962,2.643,2.944
		c0.983,0.879,1.938,1.795,2.945,2.644c-0.614,1.431-1.19,2.893-1.726,4.384c1.36,1.086,2.817,2.028,4.324,2.898
		c1.174-1.062,2.301-2.143,3.392-3.262c1.193,0.562,2.367,1.17,3.577,1.693c1.245,0.435,2.465,0.95,3.731,1.317
		c-0.02,1.559,0.009,3.131,0.088,4.715c1.672,0.49,3.384,0.785,5.108,1.015c0.675-1.43,1.3-2.867,1.875-4.31l3.953,0.2l3.953-0.2
		c0.575,1.442,1.201,2.88,1.876,4.31c1.724-0.23,3.436-0.524,5.108-1.015c0.078-1.584,0.107-3.156,0.088-4.715
		c1.266-0.367,2.486-0.883,3.73-1.317c1.21-0.523,2.384-1.132,3.578-1.693c1.089,1.119,2.216,2.199,3.39,3.262
		c1.508-0.87,2.965-1.813,4.324-2.898c-0.535-1.491-1.111-2.953-1.727-4.384c1.008-0.849,1.963-1.765,2.945-2.644
		c0.879-0.982,1.795-1.937,2.645-2.944c1.43,0.614,2.891,1.19,4.383,1.726c1.086-1.36,2.029-2.816,2.898-4.324
		c-1.062-1.174-2.143-2.301-3.262-3.392c0.562-1.193,1.17-2.367,1.693-3.576c0.434-1.245,0.949-2.465,1.316-3.73
		c1.559,0.02,3.131-0.01,4.715-0.089c0.49-1.673,0.785-3.384,1.016-5.107c-1.43-0.676-2.867-1.301-4.311-1.877L323.203,376.752z
		 M308.469,400.579c-3.125,3.12-6.863,5.62-10.935,7.304c-4.07,1.689-8.468,2.557-12.893,2.566
		c-4.424-0.01-8.822-0.877-12.893-2.566c-4.071-1.684-7.81-4.184-10.934-7.304c-3.12-3.124-5.619-6.862-7.303-10.935
		c-1.689-4.07-2.556-8.468-2.566-12.893c0.01-4.424,0.877-8.821,2.566-12.893c1.684-4.071,4.183-7.81,7.303-10.935
		c3.125-3.12,6.863-5.619,10.934-7.303c4.071-1.689,8.469-2.557,12.893-2.566c4.424,0.01,8.822,0.877,12.893,2.566
		c4.072,1.684,7.81,4.183,10.935,7.303c3.119,3.125,5.619,6.863,7.303,10.935c1.689,4.071,2.557,8.469,2.566,12.893
		c-0.01,4.425-0.877,8.822-2.566,12.893C314.088,393.717,311.588,397.455,308.469,400.579z"/>
</g>
<g>
	<path fill="none" d="M376.614,470.738c-5.834-8.325-14.617-14.387-24.123-17.594c-9.58-3.11-20.289-3.11-29.869,0
		c-9.506,3.207-18.289,9.268-24.123,17.594c-6.076,8.17-9.138,18.178-9.276,28.355c0.138,10.178,3.2,20.186,9.276,28.355
		c5.833,8.326,14.617,14.387,24.123,17.594c9.58,3.11,20.289,3.11,29.869,0c9.506-3.207,18.289-9.269,24.123-17.594
		c6.076-8.17,9.138-18.178,9.275-28.355C385.751,488.916,382.69,478.908,376.614,470.738z"/>
	<path fill="#282A1F" d="M408.127,499.094c-0.189-3.857-0.279-7.727-1.021-11.53c6.056-2.942,11.838-6.356,17.36-10.255
		c-0.812-3.588-1.976-7.065-3.312-10.49c-6.844-0.43-13.9-0.1-20.543,0.716c-1.701-3.456-3.707-6.796-6.018-9.88
		c-2.211-3.176-4.847-6.014-7.514-8.805c3.053-5.822,5.735-12.006,8.008-18.504c-2.873-2.256-5.751-4.545-8.845-6.498
		c-5.921,3.89-11.235,7.934-16.212,12.632c-3.43-1.798-7.004-3.256-10.674-4.485c-3.702-1.076-7.435-2.152-11.277-2.604
		c-0.949-6.605-2.416-13.27-4.416-19.678c-3.65-0.25-7.301-0.36-10.951-0.067c-2.512,6.43-4.408,13.036-5.683,19.745
		c-3.843,0.451-7.574,1.527-11.276,2.604c-3.67,1.229-7.244,2.688-10.674,4.485c-4.691-4.87-9.641-9.13-15.13-13.296
		c-3.2,1.805-5.998,4.195-8.951,6.354c1.825,6.76,4.238,13.282,7.031,19.313c-2.667,2.79-5.301,5.628-7.512,8.804
		c-2.311,3.084-4.317,6.424-6.019,9.88c-6.475-1.106-13.383-1.832-20.098-1.908c-1.264,3.446-2.636,6.86-3.439,10.45
		c5.417,4.402,11.017,8.213,17.043,11.488c-0.742,3.803-0.833,7.672-1.021,11.529c0.188,3.857,0.279,7.727,1.021,11.53
		c-6.056,2.941-11.838,6.356-17.36,10.255c0.812,3.588,1.976,7.065,3.312,10.49c6.844,0.43,13.9,0.1,20.542-0.716
		c1.702,3.456,3.708,6.796,6.019,9.88c2.211,3.176,4.846,6.014,7.513,8.805c-3.052,5.822-5.735,12.006-8.008,18.504
		c2.873,2.256,5.751,4.545,8.846,6.498c5.921-3.89,11.235-7.934,16.212-12.632c3.43,1.798,7.004,3.256,10.674,4.485
		c3.702,1.076,7.435,2.152,11.277,2.604c0.948,6.605,2.416,13.27,4.416,19.678c3.65,0.25,7.301,0.36,10.951,0.067
		c2.512-6.43,4.408-13.036,5.682-19.745c3.843-0.451,7.575-1.527,11.277-2.604c3.67-1.229,7.244-2.688,10.674-4.485
		c4.691,4.87,9.641,9.13,15.129,13.296c3.2-1.805,5.998-4.195,8.951-6.354c-1.824-6.76-4.237-13.282-7.03-19.313
		c2.666-2.79,5.302-5.628,7.513-8.804c2.311-3.084,4.316-6.424,6.018-9.88c6.475,1.106,13.384,1.832,20.099,1.908
		c1.264-3.446,2.636-6.86,3.438-10.45c-5.417-4.402-11.016-8.213-17.043-11.488C407.848,506.82,407.938,502.951,408.127,499.094z
		 M352.491,545.043c-9.58,3.11-20.289,3.11-29.869,0c-9.506-3.207-18.289-9.268-24.123-17.594
		c-6.076-8.17-9.138-18.178-9.276-28.355c0.138-10.178,3.2-20.186,9.276-28.355c5.833-8.326,14.617-14.387,24.123-17.594
		c9.58-3.11,20.289-3.11,29.869,0c9.506,3.207,18.289,9.269,24.123,17.594c6.076,8.17,9.138,18.178,9.275,28.355
		c-0.138,10.178-3.199,20.186-9.275,28.355C370.78,535.774,361.997,541.836,352.491,545.043z"/>
</g>
<g>
	<path fill="#FFFFFF" d="M569.788,185.908c-5.504-3.821-11.922-6.152-18.535-7.013c-6.668-0.918-13.502,0.098-19.713,2.4
		c-6.273,2.272-11.883,6.285-16.326,11.283c-4.529,4.954-7.617,11.093-9.217,17.545c-1.657,6.44-1.657,13.421,0,19.861
		c1.6,6.452,4.688,12.591,9.218,17.544c4.442,4.999,10.052,9.01,16.325,11.283c6.211,2.303,13.046,3.318,19.713,2.4
		c6.613-0.861,13.031-3.192,18.535-7.014c5.436-3.873,10.107-8.946,13.184-14.879c3.053-5.939,4.703-12.532,4.766-19.266
		c-0.062-6.733-1.713-13.327-4.766-19.265C579.894,194.854,575.223,189.781,569.788,185.908z"/>
	<path fill="#282A1F" d="M604.415,220.053l-0.297-5.865c4.545-1.943,9.023-4.248,13.438-6.912c-0.364-2.76-1.255-5.423-1.907-8.126
		c-5.193-0.704-10.453-0.936-15.459-0.795c-0.669-1.84-1.646-3.55-2.458-5.331c-0.884-1.745-1.995-3.368-2.983-5.056
		c3.174-3.88,6.006-7.969,8.68-12.388c-1.594-2.284-3.628-4.203-5.459-6.288c-4.919,1.794-9.681,4.033-14.049,6.481
		c-1.457-1.306-3.104-2.384-4.648-3.584c-1.604-1.117-3.326-2.062-4.985-3.1c1.005-4.887,1.629-9.844,1.944-14.997
		c-2.479-1.276-5.178-2.044-7.775-3.041c-3.525,3.872-6.703,8.076-9.428,12.278c-1.893-0.51-3.859-0.653-5.785-0.994
		c-1.934-0.312-3.904-0.26-5.854-0.404c-1.387-4.919-3.134-9.475-5.243-14.192c-2.775,0.055-5.526,0.484-8.275,0.929
		c-1.347,4.968-2.205,10.203-2.662,15.236c-1.918,0.415-3.75,1.111-5.585,1.797c-1.87,0.601-3.61,1.507-5.375,2.354
		c-3.499-3.671-7.237-7.019-11.265-10.133c-2.422,1.379-4.693,2.977-6.887,4.688c1.135,5.035,2.796,10.033,4.746,14.716
		c-1.5,1.265-2.801,2.729-4.108,4.187c-1.378,1.399-2.489,3.017-3.67,4.578c-4.806-1.636-9.647-2.857-14.673-3.761
		c-1.516,2.338-2.77,4.821-3.936,7.352c3.332,3.935,7.139,7.604,11.033,10.841c-0.746,1.817-1.215,3.719-1.688,5.62
		c-0.565,1.881-0.818,3.825-1.108,5.762c-5,0.797-9.928,1.969-14.741,3.511c-0.188,2.771-0.271,5.542-0.049,8.312
		c4.853,1.923,9.734,3.421,14.79,4.472c0.29,1.937,0.544,3.881,1.108,5.762c0.473,1.901,0.942,3.803,1.688,5.62
		c-3.945,2.979-7.945,6.381-11.447,9.97c1.217,2.502,2.328,5.065,3.85,7.399c5.24-0.585,10.2-1.498,15.174-2.937
		c1.18,1.561,2.292,3.179,3.67,4.578c1.307,1.458,2.608,2.922,4.108,4.187c-2.116,4.478-4.069,9.328-5.517,14.136
		c2.226,1.665,4.406,3.395,6.833,4.768c4.365-2.931,8.35-6.059,12.089-9.632c1.765,0.848,3.505,1.753,5.375,2.354
		c1.835,0.686,3.666,1.382,5.586,1.797c0.213,4.938,0.746,10.158,1.709,15.086c2.751,0.384,5.491,0.982,8.268,1.028
		c2.49-4.695,4.559-9.225,6.203-14.141c1.951-0.145,3.92-0.091,5.854-0.404c1.927-0.341,3.894-0.484,5.785-0.994
		c2.482,4.29,5.324,8.497,8.514,12.582c2.623-0.92,5.275-1.808,7.818-2.931c0.035-5.312-0.3-10.412-1.072-15.411
		c1.658-1.037,3.381-1.983,4.985-3.1c1.544-1.201,3.19-2.278,4.648-3.584c4.193,2.638,8.663,5.039,13.38,7.173
		c1.89-2.029,3.828-4.032,5.547-6.211c-2.437-4.721-5.079-9.069-8.1-13.156c0.989-1.688,2.1-3.311,2.983-5.056
		c0.812-1.781,1.79-3.49,2.458-5.331c4.939,0.391,10.016,0.438,15.188,0.131c0.736-2.68,1.496-5.373,2.027-8.1
		c-4.348-3.043-8.781-5.666-13.287-7.864L604.415,220.053z M582.971,239.318c-3.076,5.934-7.748,11.006-13.184,14.879
		c-5.504,3.821-11.922,6.153-18.535,7.014c-6.667,0.918-13.502-0.098-19.713-2.4c-6.273-2.272-11.883-6.284-16.325-11.283
		c-4.53-4.954-7.618-11.092-9.218-17.544c-1.657-6.44-1.657-13.421,0-19.861c1.6-6.452,4.688-12.591,9.217-17.545
		c4.443-4.998,10.053-9.01,16.326-11.283c6.211-2.303,13.045-3.318,19.713-2.4c6.613,0.861,13.031,3.192,18.535,7.013
		c5.436,3.874,10.106,8.946,13.184,14.88c3.053,5.938,4.703,12.532,4.766,19.265C587.674,226.786,586.024,233.379,582.971,239.318z"
		/>
</g>
<g>
	<path fill="none" d="M451.241,192.029c-1.262-1.768-2.878-3.353-4.896-4.234c-2.001-0.756-4.225-1.361-6.397-0.889
		c-2.132,0.34-4.267,1.152-5.86,2.68c-1.631,1.429-2.969,3.297-3.483,5.426c-0.667,2.075-0.667,4.374,0,6.448
		c0.515,2.129,1.853,3.998,3.483,5.426c1.594,1.527,3.729,2.34,5.861,2.68c2.173,0.473,4.396-0.133,6.396-0.889
		c2.02-0.882,3.635-2.468,4.896-4.235c1.208-1.852,1.697-4.022,1.848-6.206C452.938,196.052,452.449,193.881,451.241,192.029z"/>
	<path fill="#282A1F" d="M456.7,198.235l-0.166-1.647c1.086-0.435,2.164-0.938,3.229-1.512c-0.199-1.377-0.743-2.696-1.143-4.031
		c-1.209,0.097-2.398,0.26-3.554,0.484l-0.79-1.455c-0.246-0.497-0.672-0.871-1-1.312c0.674-0.95,1.303-1.955,1.883-3.01
		c-0.881-1.084-2.081-1.857-3.135-2.766c-0.945,0.703-1.875,1.507-2.723,2.314l-1.455-0.79c-0.465-0.312-1.034-0.376-1.549-0.569
		c0.053-1.16,0.038-2.344-0.046-3.542c-1.322-0.495-2.757-0.419-4.136-0.61c-0.414,1.068-0.758,2.206-1.033,3.377l-1.648,0.166
		c-0.553,0.033-1.098,0.11-1.617,0.313c-0.579-0.996-1.228-1.975-1.943-2.929c-1.373,0.334-2.584,1.047-3.81,1.725
		c0.253,1.16,0.533,2.236,0.933,3.364l-1.276,1.053c-0.421,0.356-0.88,0.674-1.199,1.132c-1.024-0.522-2.097-0.993-3.21-1.408
		c-0.961,1.03-1.625,2.263-2.27,3.509c0.832,0.838,1.676,1.604,2.588,2.324l-0.492,1.581c-0.128,0.534-0.405,1.038-0.41,1.598
		c-1.139,0.116-2.289,0.301-3.445,0.556c-0.221,1.392-0.221,2.781,0,4.173c1.156,0.256,2.307,0.44,3.445,0.557
		c0.006,0.559,0.283,1.063,0.411,1.598l0.491,1.581c-0.912,0.719-1.755,1.485-2.588,2.324c0.646,1.245,1.309,2.479,2.27,3.508
		c1.115-0.415,2.187-0.886,3.211-1.408c0.318,0.458,0.778,0.775,1.199,1.132l1.277,1.054c-0.4,1.127-0.682,2.203-0.934,3.363
		c1.226,0.679,2.437,1.391,3.811,1.725c0.715-0.954,1.363-1.933,1.943-2.928c0.519,0.202,1.062,0.279,1.617,0.312l1.646,0.166
		c0.275,1.171,0.62,2.309,1.035,3.377c1.378-0.191,2.812-0.115,4.135-0.61c0.084-1.199,0.099-2.382,0.046-3.542
		c0.515-0.194,1.083-0.259,1.548-0.57l1.455-0.789c0.848,0.807,1.778,1.61,2.725,2.313c1.053-0.908,2.252-1.682,3.133-2.767
		c-0.58-1.054-1.209-2.059-1.883-3.009c0.328-0.441,0.755-0.815,1-1.312l0.79-1.455c1.155,0.225,2.345,0.388,3.554,0.483
		c0.399-1.334,0.943-2.653,1.143-4.03c-1.064-0.573-2.143-1.077-3.229-1.512L456.7,198.235z M446.344,208.677
		c-2,0.756-4.224,1.361-6.396,0.889c-2.133-0.34-4.268-1.152-5.861-2.68c-1.631-1.428-2.969-3.297-3.483-5.426
		c-0.667-2.074-0.667-4.373,0-6.448c0.515-2.129,1.853-3.997,3.483-5.426c1.594-1.527,3.729-2.34,5.86-2.68
		c2.173-0.473,4.396,0.133,6.397,0.889c2.019,0.882,3.635,2.467,4.896,4.234c1.208,1.852,1.697,4.022,1.848,6.206
		c-0.15,2.184-0.64,4.354-1.848,6.206C449.979,206.209,448.364,207.795,446.344,208.677z"/>
</g>
<g>
	<path fill="none" d="M489.683,67.696c-3.093-4.802-7.617-8.756-12.796-11.088c-5.117-2.315-11.037-3.304-16.733-2.373
		c-5.645,0.738-10.978,3.241-15.323,6.99c-4.362,3.754-7.548,8.776-9.16,14.196c-1.604,5.419-1.603,11.508,0,16.926
		c1.613,5.421,4.799,10.443,9.161,14.197c4.347,3.75,9.68,6.252,15.324,6.991c5.695,0.931,11.614-0.058,16.73-2.374
		c5.179-2.332,9.703-6.287,12.797-11.09c3.14-4.818,4.666-10.395,4.786-16.188C494.349,78.09,492.824,72.516,489.683,67.696z"/>
	<path fill="none" d="M498.893,61.766c-4.22-6.555-10.36-11.914-17.45-15.119c-7.036-3.195-15.1-4.482-22.836-3.256
		c-7.72,1.028-15.05,4.449-20.954,9.559c-5.929,5.108-10.291,11.946-12.495,19.391c-2.193,7.453-2.193,15.637,0.001,23.09
		c2.204,7.445,6.566,14.283,12.496,19.391c5.904,5.11,13.234,8.531,20.954,9.561c7.735,1.227,15.798-0.061,22.834-3.257
		c7.089-3.205,13.229-8.565,17.45-15.12c4.274-6.564,6.42-14.272,6.531-22.119C505.313,76.037,503.168,68.328,498.893,61.766z
		 M496.053,104.175c-3.873,6.015-9.516,10.941-16.016,13.878c-6.444,2.924-13.846,4.119-20.952,2.984
		c-7.079-0.939-13.794-4.078-19.218-8.768c-5.446-4.691-9.445-10.97-11.468-17.79c-2.012-6.825-2.012-14.363,0-21.188
		c2.021-6.821,6.021-13.1,11.466-17.789c5.424-4.69,12.139-7.828,19.219-8.768c7.107-1.135,14.509,0.06,20.954,2.983
		c6.5,2.937,12.142,7.862,16.015,13.876c3.925,6.025,5.879,13.076,5.993,20.291C501.932,91.098,499.978,98.148,496.053,104.175z"/>
	<path fill="#282A1F" d="M535.613,83.885c-0.124-2.59-0.196-5.188-0.44-7.771c4.036-1.926,8.034-4.117,11.97-6.569
		c-1.019-6.285-2.946-12.403-5.309-18.315c-4.663,0.074-9.248,0.404-13.717,0.978c-1.056-2.387-2.505-4.555-3.842-6.785
		c-1.328-2.238-3.022-4.227-4.551-6.326c2.408-3.854,4.52-7.806,6.506-11.998c-4.231-4.735-9.153-8.802-14.323-12.481
		c-3.847,2.527-7.562,5.328-11.009,8.215c-2.184-1.422-4.548-2.518-6.898-3.638c-2.31-1.212-4.834-1.93-7.262-2.866
		c-0.039-4.611-0.42-9.024-1.024-13.627C479.572,0.99,473.203,0.213,466.889,0c-1.86,4.152-3.457,8.455-4.791,12.823
		c-2.593,0.126-5.188,0.205-7.754,0.681c-2.582,0.346-5.141,0.801-7.65,1.525c-2.489-3.736-5.277-7.53-8.24-10.982
		c-6.025,2.055-11.918,4.59-17.314,7.955c0.729,4.585,1.631,8.953,2.876,13.348c-2.055,1.587-4.255,3.003-6.141,4.793
		c-1.921,1.749-3.896,3.443-5.587,5.424c-4.12-1.805-8.451-3.439-12.869-4.803c-3.924,4.984-7.511,10.273-10.254,16.025
		c3.078,3.467,6.247,6.684,9.606,9.689c-0.878,2.448-1.896,4.859-2.582,7.369c-0.599,2.531-1.454,5.016-1.762,7.604
		c-4.437,0.718-8.911,1.701-13.397,2.951c-0.689,6.309-0.69,12.659,0,18.968c4.487,1.249,8.961,2.233,13.398,2.951
		c0.308,2.587,1.163,5.072,1.762,7.603c0.688,2.51,1.705,4.921,2.583,7.37c-3.359,3.006-6.528,6.222-9.606,9.689
		c2.743,5.751,6.33,11.04,10.254,16.024c4.418-1.364,8.748-2.998,12.869-4.804c1.689,1.98,3.665,3.675,5.586,5.423
		c1.886,1.791,4.087,3.207,6.141,4.794c-1.245,4.396-2.146,8.763-2.876,13.348c5.397,3.365,11.289,5.901,17.315,7.956
		c2.963-3.453,5.751-7.246,8.24-10.982c2.509,0.724,5.068,1.18,7.649,1.524c2.567,0.477,5.162,0.556,7.755,0.681
		c1.335,4.369,2.931,8.672,4.792,12.823c6.313-0.213,12.683-0.99,18.824-2.7c0.604-4.603,0.985-9.016,1.024-13.627
		c2.427-0.937,4.951-1.654,7.26-2.866c2.352-1.12,4.716-2.217,6.899-3.638c3.448,2.886,7.163,5.687,11.009,8.213
		c5.17-3.68,10.092-7.746,14.322-12.481c-1.986-4.192-4.098-8.144-6.506-11.998c1.527-2.099,3.223-4.087,4.55-6.325
		c1.337-2.23,2.786-4.398,3.842-6.785c4.469,0.572,9.054,0.902,13.717,0.977c2.362-5.912,4.29-12.029,5.309-18.314
		c-3.936-2.452-7.934-4.645-11.97-6.57C535.417,89.072,535.489,86.475,535.613,83.885z M481.443,121.124
		c-7.036,3.196-15.099,4.483-22.834,3.257c-7.72-1.029-15.05-4.45-20.954-9.561c-5.93-5.107-10.292-11.945-12.496-19.391
		c-2.194-7.453-2.194-15.637-0.001-23.09c2.204-7.444,6.566-14.282,12.495-19.391c5.904-5.109,13.234-8.53,20.954-9.559
		c7.736-1.227,15.8,0.061,22.836,3.256c7.09,3.205,13.23,8.564,17.45,15.119c4.275,6.562,6.42,14.271,6.531,22.119
		c-0.111,7.847-2.257,15.555-6.531,22.119C494.672,112.559,488.532,117.919,481.443,121.124z"/>
	<path fill="#282A1F" d="M496.053,63.594c-3.873-6.014-9.515-10.939-16.015-13.876c-6.445-2.924-13.847-4.118-20.954-2.983
		c-7.08,0.939-13.795,4.077-19.219,8.768c-5.445,4.689-9.444,10.968-11.466,17.789c-2.012,6.825-2.012,14.363,0,21.188
		c2.022,6.82,6.021,13.099,11.468,17.79c5.424,4.689,12.139,7.828,19.218,8.768c7.106,1.135,14.508-0.061,20.952-2.984
		c6.5-2.937,12.143-7.863,16.016-13.878c3.925-6.026,5.879-13.077,5.993-20.29C501.932,76.67,499.978,69.619,496.053,63.594z
		 M476.886,111.162c-5.116,2.316-11.035,3.305-16.73,2.374c-5.645-0.739-10.978-3.241-15.324-6.991
		c-4.362-3.754-7.548-8.776-9.161-14.197c-1.603-5.418-1.604-11.507,0-16.926c1.612-5.42,4.798-10.442,9.16-14.196
		c4.346-3.749,9.679-6.252,15.323-6.99c5.696-0.931,11.616,0.058,16.733,2.373c5.179,2.332,9.703,6.286,12.796,11.088
		c3.141,4.819,4.666,10.394,4.786,16.188c-0.12,5.793-1.646,11.369-4.786,16.188C486.589,104.875,482.065,108.83,476.886,111.162z"
		/>
</g>
<g>
	<path fill="none" d="M191.713,101.479c-1.793-4.335-4.455-8.319-7.781-11.65c-3.332-3.326-7.316-5.988-11.65-7.781
		c-4.335-1.799-9.012-2.722-13.734-2.734c-4.723,0.013-9.399,0.936-13.734,2.734c-4.334,1.793-8.318,4.455-11.65,7.781
		c-3.326,3.331-5.988,7.315-7.781,11.65c-1.799,4.335-2.722,9.013-2.734,13.734c0.013,4.722,0.936,9.399,2.734,13.734
		c1.793,4.335,4.455,8.319,7.781,11.65c3.332,3.326,7.316,5.988,11.65,7.781c4.335,1.799,9.012,2.722,13.734,2.734
		c4.723-0.013,9.399-0.936,13.734-2.734c4.334-1.793,8.318-4.455,11.65-7.781c3.326-3.331,5.988-7.315,7.781-11.65
		c1.799-4.335,2.722-9.013,2.734-13.734C194.435,110.491,193.512,105.813,191.713,101.479z M190.071,128.266
		c-1.703,4.118-4.233,7.907-7.396,11.075c-3.169,3.162-6.956,5.693-11.075,7.396c-4.118,1.709-8.559,2.586-13.053,2.599
		c-4.494-0.013-8.935-0.89-13.053-2.599c-4.119-1.702-7.906-4.233-11.075-7.396c-3.162-3.168-5.692-6.957-7.396-11.075
		c-1.709-4.118-2.586-8.559-2.599-13.053c0.013-4.494,0.89-8.935,2.599-13.053c1.703-4.118,4.233-7.907,7.396-11.075
		c3.169-3.162,6.956-5.693,11.075-7.396c4.118-1.709,8.559-2.586,13.053-2.599c4.494,0.013,8.935,0.89,13.053,2.599
		c4.119,1.702,7.906,4.233,11.075,7.396c3.162,3.168,5.692,6.957,7.396,11.075c1.709,4.118,2.586,8.559,2.599,13.053
		C192.657,119.707,191.78,124.147,190.071,128.266z"/>
	<path fill="none" d="M186.387,103.688c-1.501-3.633-3.736-6.98-6.531-9.782c-2.803-2.796-6.15-5.031-9.783-6.532
		c-3.634-1.507-7.543-2.28-11.525-2.295c-3.982,0.015-7.892,0.788-11.525,2.295c-3.633,1.501-6.98,3.736-9.783,6.532
		c-2.795,2.802-5.03,6.149-6.531,9.782c-1.507,3.634-2.281,7.543-2.295,11.525c0.014,3.982,0.788,7.892,2.295,11.525
		c1.501,3.633,3.736,6.98,6.531,9.782c2.803,2.796,6.15,5.031,9.783,6.532c3.634,1.507,7.543,2.28,11.525,2.295
		c3.982-0.015,7.892-0.788,11.525-2.295c3.633-1.501,6.98-3.736,9.783-6.532c2.795-2.802,5.03-6.149,6.531-9.782
		c1.507-3.634,2.281-7.543,2.295-11.525C188.668,111.23,187.894,107.321,186.387,103.688z"/>
	<path fill="#282A1F" d="M210.336,115.213l-0.189-3.893c2.201-0.905,4.415-1.905,6.502-2.994c-0.385-3.027-0.93-6.025-1.788-8.962
		c-2.38-0.201-4.712-0.315-7.126-0.303l-1.345-3.669c-0.499-1.201-1.103-2.358-1.658-3.535c1.677-1.679,3.343-3.464,4.852-5.27
		c-1.513-2.65-3.183-5.195-5.085-7.578c-2.258,0.716-4.488,1.535-6.704,2.466l-2.628-2.883l-2.882-2.627
		c0.931-2.216,1.75-4.447,2.466-6.704c-2.383-1.902-4.928-3.572-7.578-5.085c-1.807,1.508-3.591,3.176-5.27,4.852
		c-1.177-0.556-2.334-1.158-3.535-1.658l-3.669-1.346c0.013-2.413-0.102-4.745-0.304-7.125c-2.937-0.858-5.935-1.404-8.961-1.788
		c-1.089,2.087-2.09,4.301-2.994,6.502l-3.893-0.189l-3.893,0.189c-0.905-2.201-1.906-4.415-2.994-6.502
		c-3.027,0.384-6.025,0.93-8.962,1.788c-0.201,2.38-0.315,4.713-0.304,7.126l-3.668,1.345c-1.201,0.5-2.359,1.103-3.535,1.658
		c-1.68-1.676-3.463-3.344-5.27-4.852c-2.65,1.513-5.195,3.183-7.578,5.085c0.716,2.257,1.535,4.488,2.466,6.704l-2.882,2.627
		l-2.629,2.883c-2.215-0.931-4.446-1.75-6.703-2.465c-1.902,2.382-3.572,4.927-5.085,7.577c1.509,1.807,3.175,3.591,4.852,5.27
		c-0.556,1.177-1.159,2.334-1.658,3.535l-1.345,3.669c-2.414-0.013-4.746,0.102-7.126,0.303c-0.858,2.938-1.404,5.936-1.788,8.962
		c2.087,1.089,4.301,2.089,6.502,2.994l-0.189,3.893l0.189,3.893c-2.201,0.905-4.415,1.905-6.502,2.994
		c0.385,3.027,0.93,6.025,1.788,8.962c2.38,0.201,4.712,0.315,7.126,0.303l1.345,3.669c0.499,1.201,1.103,2.358,1.658,3.535
		c-1.677,1.679-3.343,3.464-4.852,5.27c1.513,2.65,3.183,5.195,5.085,7.578c2.258-0.716,4.488-1.535,6.704-2.466l2.628,2.883
		l2.882,2.627c-0.931,2.216-1.75,4.447-2.466,6.704c2.383,1.902,4.928,3.572,7.578,5.085c1.807-1.508,3.591-3.176,5.27-4.852
		c1.177,0.556,2.334,1.158,3.535,1.658l3.669,1.346c-0.013,2.413,0.102,4.745,0.304,7.125c2.937,0.858,5.935,1.404,8.961,1.788
		c1.089-2.087,2.09-4.301,2.994-6.502l3.893,0.189l3.893-0.189c0.905,2.201,1.906,4.415,2.994,6.502
		c3.027-0.384,6.025-0.93,8.962-1.788c0.201-2.38,0.315-4.713,0.304-7.126l3.668-1.345c1.201-0.5,2.359-1.103,3.535-1.658
		c1.68,1.676,3.463,3.343,5.27,4.852c2.65-1.513,5.195-3.183,7.578-5.085c-0.716-2.257-1.535-4.488-2.466-6.704l2.882-2.627
		l2.629-2.883c2.215,0.931,4.446,1.75,6.703,2.465c1.902-2.382,3.572-4.927,5.085-7.577c-1.509-1.807-3.175-3.591-4.852-5.27
		c0.556-1.177,1.159-2.334,1.658-3.535l1.345-3.669c2.414,0.013,4.746-0.102,7.126-0.303c0.858-2.938,1.404-5.936,1.788-8.962
		c-2.087-1.089-4.301-2.089-6.502-2.994L210.336,115.213z M183.932,140.598c-3.332,3.326-7.316,5.988-11.65,7.781
		c-4.335,1.799-9.012,2.722-13.734,2.734c-4.723-0.013-9.399-0.936-13.734-2.734c-4.334-1.793-8.318-4.455-11.65-7.781
		c-3.326-3.331-5.988-7.315-7.781-11.65c-1.799-4.335-2.722-9.013-2.734-13.734c0.013-4.722,0.936-9.399,2.734-13.734
		c1.793-4.335,4.455-8.319,7.781-11.65c3.332-3.326,7.316-5.988,11.65-7.781c4.335-1.799,9.012-2.722,13.734-2.734
		c4.723,0.013,9.399,0.936,13.734,2.734c4.334,1.793,8.318,4.455,11.65,7.781c3.326,3.331,5.988,7.315,7.781,11.65
		c1.799,4.335,2.722,9.013,2.734,13.734c-0.013,4.722-0.936,9.399-2.734,13.734C189.92,133.282,187.258,137.267,183.932,140.598z"/>
	<path fill="#282A1F" d="M190.071,102.16c-1.703-4.118-4.233-7.907-7.396-11.075c-3.169-3.162-6.956-5.693-11.075-7.396
		c-4.118-1.709-8.559-2.586-13.053-2.599c-4.494,0.013-8.935,0.89-13.053,2.599c-4.119,1.702-7.906,4.233-11.075,7.396
		c-3.162,3.168-5.692,6.957-7.396,11.075c-1.709,4.118-2.586,8.559-2.599,13.053c0.013,4.494,0.89,8.935,2.599,13.053
		c1.703,4.118,4.233,7.907,7.396,11.075c3.169,3.162,6.956,5.693,11.075,7.396c4.118,1.709,8.559,2.586,13.053,2.599
		c4.494-0.013,8.935-0.89,13.053-2.599c4.119-1.702,7.906-4.233,11.075-7.396c3.162-3.168,5.692-6.957,7.396-11.075
		c1.709-4.118,2.586-8.559,2.599-13.053C192.657,110.719,191.78,106.278,190.071,102.16z M179.856,136.521
		c-2.803,2.796-6.15,5.031-9.783,6.532c-3.634,1.507-7.543,2.28-11.525,2.295c-3.982-0.015-7.892-0.788-11.525-2.295
		c-3.633-1.501-6.98-3.736-9.783-6.532c-2.795-2.802-5.03-6.149-6.531-9.782c-1.507-3.634-2.281-7.543-2.295-11.525
		c0.014-3.982,0.788-7.892,2.295-11.525c1.501-3.633,3.736-6.98,6.531-9.782c2.803-2.796,6.15-5.031,9.783-6.532
		c3.634-1.507,7.543-2.28,11.525-2.295c3.982,0.015,7.892,0.788,11.525,2.295c3.633,1.501,6.98,3.736,9.783,6.532
		c2.795,2.802,5.03,6.149,6.531,9.782c1.507,3.634,2.281,7.543,2.295,11.525c-0.014,3.982-0.788,7.892-2.295,11.525
		C184.886,130.371,182.651,133.719,179.856,136.521z"/>
</g>
<path fill="#282A1F" d="M461.191,296.897l-0.334-6.595c5.11-2.183,10.146-4.775,15.11-7.771c-0.408-3.105-1.41-6.099-2.144-9.139
	c-5.84-0.793-11.755-1.052-17.384-0.894c-0.751-2.069-1.852-3.993-2.765-5.994c-0.993-1.963-2.243-3.789-3.354-5.686
	c3.569-4.364,6.754-8.961,9.761-13.929c-1.792-2.57-4.079-4.729-6.139-7.072c-5.53,2.018-10.885,4.535-15.798,7.289
	c-1.639-1.469-3.49-2.682-5.228-4.03c-1.803-1.259-3.74-2.322-5.604-3.488c1.129-5.495,1.831-11.069,2.186-16.863
	c-2.787-1.437-5.823-2.299-8.744-3.419c-3.964,4.353-7.537,9.082-10.602,13.806c-2.128-0.573-4.34-0.733-6.505-1.118
	c-2.175-0.352-4.391-0.292-6.583-0.455c-1.559-5.53-3.524-10.654-5.895-15.958c-3.123,0.062-6.216,0.545-9.308,1.043
	c-1.514,5.587-2.479,11.473-2.991,17.133c-2.159,0.468-4.22,1.25-6.282,2.021c-2.102,0.676-4.059,1.695-6.044,2.648
	c-3.936-4.129-8.14-7.894-12.668-11.394c-2.724,1.55-5.277,3.345-7.744,5.271c1.278,5.662,3.146,11.282,5.339,16.549
	c-1.688,1.421-3.151,3.068-4.621,4.707c-1.548,1.572-2.8,3.393-4.126,5.148c-5.405-1.838-10.85-3.213-16.5-4.23
	c-1.704,2.629-3.112,5.422-4.425,8.269c3.747,4.423,8.027,8.55,12.406,12.189c-0.839,2.042-1.366,4.182-1.897,6.319
	c-0.635,2.115-0.92,4.302-1.246,6.481c-5.622,0.896-11.163,2.214-16.577,3.947c-0.211,3.117-0.306,6.23-0.055,9.348
	c5.458,2.163,10.946,3.848,16.632,5.029c0.325,2.177,0.611,4.364,1.246,6.479c0.531,2.137,1.059,4.275,1.897,6.318
	c-4.437,3.35-8.934,7.176-12.872,11.21c1.369,2.813,2.618,5.697,4.329,8.319c5.892-0.656,11.471-1.683,17.062-3.301
	c1.327,1.755,2.579,3.575,4.126,5.148c1.47,1.638,2.935,3.285,4.621,4.709c-2.381,5.033-4.577,10.489-6.204,15.895
	c2.504,1.871,4.955,3.816,7.683,5.36c4.908-3.296,9.392-6.812,13.595-10.832c1.985,0.953,3.942,1.973,6.044,2.649
	c2.062,0.771,4.123,1.553,6.282,2.021c0.239,5.552,0.839,11.421,1.922,16.962c3.092,0.433,6.173,1.106,9.297,1.157
	c2.8-5.28,5.126-10.375,6.975-15.901c2.194-0.162,4.408-0.104,6.583-0.454c2.165-0.385,4.377-0.545,6.505-1.118
	c2.792,4.823,5.987,9.554,9.574,14.148c2.949-1.034,5.932-2.034,8.791-3.297c0.04-5.974-0.338-11.708-1.205-17.328
	c1.864-1.167,3.802-2.231,5.604-3.488c1.737-1.349,3.589-2.561,5.228-4.03c4.715,2.968,9.742,5.667,15.047,8.067
	c2.124-2.282,4.305-4.535,6.237-6.984c-2.741-5.311-5.713-10.199-9.108-14.794c1.111-1.9,2.361-3.723,3.354-5.687
	c0.913-2.001,2.014-3.925,2.765-5.994c5.555,0.439,11.263,0.492,17.078,0.147c0.828-3.014,1.683-6.042,2.28-9.107
	c-4.889-3.422-9.875-6.372-14.941-8.843L461.191,296.897z M395.124,321.981c-13.869,0-25.112-11.243-25.112-25.112
	c0-13.87,11.243-25.115,25.112-25.115c13.87,0,25.115,11.245,25.115,25.115C420.239,310.738,408.994,321.981,395.124,321.981z"/>
<g>
	<path fill="none" d="M239.988,238.367c-4.318-6.186-10.853-10.667-17.882-13.049c-7.086-2.302-15.059-2.303-22.145,0
		c-7.029,2.382-13.563,6.863-17.883,13.049c-4.512,6.062-6.762,13.454-6.879,21.016c0.117,7.562,2.367,14.953,6.879,21.016
		c4.319,6.186,10.854,10.667,17.883,13.049c7.086,2.303,15.059,2.302,22.145,0c7.029-2.382,13.563-6.863,17.882-13.049
		c4.514-6.062,6.762-13.454,6.88-21.016C246.75,251.821,244.501,244.43,239.988,238.367z"/>
	<path fill="#282A1F" d="M269.104,259.383c-0.197-2.529-0.09-5.09-0.551-7.594c5.976-2.72,12.078-6.106,17.564-10.024
		c-0.845-3.77-2.034-7.436-3.46-11.024c-6.968-0.449-14.037-0.042-20.571,0.947c-1.373-2.134-2.501-4.435-4.118-6.404
		c-1.455-2.089-3.11-4.014-4.864-5.855c3.383-5.869,6.012-11.875,8.31-18.437c-2.921-2.48-5.979-4.849-9.261-6.848
		c-5.938,3.779-11.302,8.051-16.122,12.883c-2.248-1.199-4.677-1.972-7.058-2.858c-2.429-0.719-4.888-1.417-7.385-1.853
		c-0.753-6.504-2.122-13.324-4.144-19.791c-3.83-0.277-7.663-0.391-11.495-0.075c-2.579,6.412-4.388,13.302-5.471,19.866
		c-2.498,0.436-4.956,1.134-7.385,1.853c-2.381,0.887-4.81,1.659-7.059,2.859c-4.505-4.954-9.523-9.521-14.982-13.579
		c-3.351,1.907-6.375,4.301-9.405,6.656c1.88,6.923,4.171,13.222,7.315,19.323c-1.754,1.843-3.409,3.767-4.864,5.855
		c-1.616,1.97-2.745,4.271-4.118,6.405c-6.428-1.308-13.173-2.06-20.099-2.198c-1.36,3.607-2.762,7.208-3.604,10.979
		c5.338,4.456,11.258,8.26,17.236,11.321c-0.461,2.504-0.354,5.063-0.551,7.593c0.197,2.529,0.09,5.09,0.551,7.594
		c-5.976,2.72-12.078,6.106-17.564,10.024c0.846,3.77,2.033,7.436,3.461,11.024c6.967,0.449,14.037,0.042,20.57-0.947
		c1.373,2.134,2.502,4.435,4.118,6.404c1.455,2.089,3.11,4.013,4.864,5.855c-3.383,5.869-6.012,11.875-8.309,18.437
		c2.92,2.48,5.979,4.849,9.26,6.848c5.939-3.779,11.303-8.051,16.122-12.883c2.248,1.199,4.677,1.972,7.058,2.858
		c2.429,0.719,4.888,1.417,7.385,1.853c0.753,6.504,2.122,13.324,4.144,19.791c3.83,0.277,7.663,0.391,11.495,0.075
		c2.579-6.412,4.388-13.302,5.471-19.866c2.498-0.436,4.956-1.134,7.385-1.853c2.381-0.887,4.81-1.659,7.058-2.859
		c4.506,4.954,9.524,9.521,14.983,13.579c3.351-1.907,6.375-4.301,9.405-6.656c-1.879-6.923-4.171-13.222-7.315-19.323
		c1.754-1.843,3.409-3.767,4.864-5.855c1.617-1.97,2.745-4.271,4.118-6.405c6.428,1.308,13.173,2.06,20.099,2.197
		c1.36-3.606,2.762-7.207,3.604-10.978c-5.337-4.456-11.257-8.26-17.235-11.321C269.014,264.472,268.907,261.912,269.104,259.383z
		 M222.106,293.447c-7.086,2.302-15.059,2.303-22.145,0c-7.029-2.382-13.563-6.863-17.883-13.049
		c-4.512-6.062-6.762-13.454-6.879-21.016c0.117-7.562,2.367-14.953,6.879-21.016c4.319-6.186,10.854-10.667,17.883-13.049
		c7.086-2.303,15.059-2.302,22.145,0c7.029,2.382,13.563,6.863,17.882,13.049c4.514,6.062,6.762,13.454,6.88,21.016
		c-0.118,7.562-2.366,14.953-6.88,21.016C235.669,286.584,229.135,291.065,222.106,293.447z"/>
</g>
<g>
	<path fill="none" d="M303.518,147.294c-4.535-3.442-11.13-4.169-16.307-1.798c-5.406,2.256-9.092,7.54-9.774,13.254
		c-0.579,5.724,1.868,11.687,6.653,15.065c4.535,3.442,11.131,4.168,16.309,1.797c5.407-2.256,9.094-7.542,9.775-13.254
		C310.751,156.64,308.305,150.672,303.518,147.294z"/>
	<path fill="#282A1F" d="M330.424,173.039c0.916-2.674,1.479-5.445,1.854-8.243c0.243-2.812,0.297-5.639-0.015-8.449
		c6.095-2.816,11.902-6.66,17.159-11.476c-1.345-4.616-3.168-9.108-5.617-13.233c-7.362-0.06-14.435,1.139-20.898,3.465
		c-1.809-2.167-3.956-4.034-6.211-5.721c-2.257-1.699-4.743-3.059-7.299-4.257c0.576-6.612,0.166-13.652-1.387-20.557
		c-4.649-1.225-9.423-1.732-14.209-1.803c-3.76,6.385-6.257,13.123-7.498,19.814c-2.754,0.612-5.478,1.398-8.05,2.563
		c-2.568,1.156-5.071,2.51-7.308,4.231c-5.524-3.922-11.71-6.96-18.503-9.146c-3.385,3.405-6.244,7.309-8.693,11.449
		c3.65,6.446,8.229,11.974,13.438,16.394c-0.916,2.674-1.479,5.446-1.853,8.243c-0.244,2.812-0.298,5.639,0.013,8.449
		c-6.095,2.816-11.903,6.66-17.159,11.475c1.345,4.616,3.167,9.108,5.617,13.235c7.362,0.06,14.435-1.139,20.898-3.465
		c1.809,2.167,3.956,4.034,6.21,5.721c2.258,1.699,4.744,3.059,7.3,4.256c-0.576,6.612-0.165,13.652,1.388,20.557
		c4.65,1.225,9.422,1.731,14.208,1.802c3.759-6.385,6.256-13.123,7.497-19.814c2.755-0.612,5.478-1.398,8.051-2.564
		c2.568-1.155,5.071-2.509,7.309-4.23c5.523,3.923,11.709,6.961,18.502,9.147c3.385-3.405,6.244-7.309,8.694-11.449
		C340.211,182.987,335.632,177.459,330.424,173.039z M310.174,162.359c-0.682,5.712-4.368,10.998-9.775,13.254
		c-5.178,2.371-11.773,1.645-16.309-1.797c-4.785-3.379-7.232-9.341-6.653-15.065c0.682-5.714,4.368-10.998,9.774-13.254
		c5.177-2.371,11.771-1.645,16.307,1.798C308.305,150.672,310.751,156.64,310.174,162.359z"/>
</g>
<g>
	<path fill="#282A1F" d="M222.805,469.018c0.4-2.61,0.57-5.252,0.75-7.883c6.421-1.65,12.938-3.676,19.237-6.076
		c0.015-3.576-0.208-7.145-0.505-10.701c-6.64-2.18-13.214-3.927-19.922-5.215c-0.367-2.617-0.994-5.184-1.536-7.768
		c-0.697-2.545-1.313-5.115-2.183-7.61c5.475-3.877,10.711-8.062,15.781-12.585c-1.294-3.324-2.711-6.612-4.328-9.797
		c-6.91,0.311-13.782,1.1-20.443,2.276c-1.362-2.259-2.72-4.53-4.269-6.669c-1.477-2.191-3.119-4.261-4.747-6.34
		c3.624-5.539,7.05-11.404,10.118-17.448c-2.413-2.634-4.964-5.131-7.573-7.566c-6.396,2.886-12.413,5.996-18.247,9.569
		c-2.043-1.674-4.216-3.178-6.372-4.701c-2.215-1.438-4.427-2.879-6.738-4.158c1.438-6.572,2.45-13.137,3.173-19.941
		c-3.208-1.559-6.461-3.027-9.793-4.307c-4.889,4.884-9.447,10.118-13.57,15.453c-2.527-0.768-5.068-1.484-7.647-2.058
		c-2.571-0.593-5.169-1.095-7.781-1.468c-1.042-6.584-2.455-13.21-4.261-19.725c-3.556-0.355-7.136-0.471-10.706-0.482
		c-2.791,6.355-5.137,12.809-7.041,19.34c-2.636,0.144-5.26,0.485-7.873,0.842c-2.612,0.391-5.21,0.855-7.782,1.458
		c-3.369-5.835-7.037-11.346-11.085-16.873c-3.412,1.017-6.815,2.095-10.134,3.413c-0.335,6.883-0.165,13.855,0.368,20.552
		c-2.365,1.171-4.756,2.3-7.031,3.644c-2.325,1.254-4.529,2.715-6.751,4.139c-5.17-4.109-10.725-8.107-16.436-11.689
		c-2.854,2.152-5.576,4.467-8.237,6.848c2.265,6.619,4.828,12.918,7.839,19.047c-1.859,1.876-3.554,3.906-5.261,5.918
		c-1.654,2.059-3.271,4.145-4.768,6.322c-6.41-2.034-12.848-3.639-19.57-4.991c-1.838,3.056-3.597,6.159-5.184,9.354
		c4.448,5.332,9.185,10.325,14.149,14.938c-1.021,2.436-1.941,4.91-2.765,7.42c-0.79,2.518-1.598,5.037-2.174,7.614
		c-6.682,0.42-13.368,1.22-20.039,2.408C0.81,437.029,0.307,440.576,0,444.135c6.043,3.368,12.303,6.309,18.588,8.809
		c-0.028,2.638-0.063,5.284,0.127,7.918c0.108,2.64,0.406,5.264,0.713,7.887c-6.038,2.811-11.958,5.98-17.807,9.508
		c0.709,3.49,1.489,6.963,2.475,10.385c6.852,0.948,13.768,1.436,20.507,1.514c0.926,2.473,1.86,4.943,2.97,7.341
		c1.034,2.43,2.274,4.768,3.505,7.101c-4.595,4.778-9.076,9.926-13.172,15.281c1.868,3.047,3.927,5.974,6.059,8.84
		c6.778-1.621,13.314-3.613,19.686-6.035c1.69,2.028,3.56,3.9,5.412,5.779c1.88,1.855,3.828,3.637,5.85,5.336
		c-2.595,6.174-4.807,12.467-6.765,19.031c2.876,2.11,5.808,4.141,8.84,6.021c5.733-3.969,11.111-8.177,16.177-12.728
		c2.326,1.252,4.717,2.37,7.13,3.445c2.438,1.01,4.872,2.04,7.383,2.859c-0.203,6.704-0.014,13.401,0.541,20.18
		c3.437,0.96,6.911,1.814,10.428,2.442c3.91-5.688,7.428-11.69,10.495-17.679c2.628,0.252,5.256,0.544,7.896,0.598
		c2.639,0.156,5.281,0.067,7.92,0.028c2.237,6.215,4.859,12.522,7.832,18.585c3.558-0.332,7.082-0.871,10.594-1.485
		c1.545-6.842,2.691-13.513,3.361-20.318c2.562-0.64,5.086-1.413,7.588-2.259c2.487-0.877,4.978-1.771,7.388-2.849
		c4.35,5.058,9.033,9.948,13.992,14.542c3.212-1.564,6.317-3.35,9.362-5.216c-0.964-6.871-2.361-13.598-4.174-20.152
		c2.153-1.526,4.234-3.159,6.251-4.86c2.032-1.688,3.965-3.488,5.862-5.324c5.881,3.127,11.988,5.949,18.318,8.477
		c2.387-2.655,4.658-5.405,6.82-8.244c-3.453-6.094-7.103-11.801-11.197-17.281c1.472-2.194,2.78-4.488,4.094-6.778
		c1.222-2.34,2.468-4.67,3.521-7.093c6.667,0.824,13.324,1.241,20.146,1.324c1.265-3.334,2.431-6.712,3.391-10.152
		c-5.29-4.413-10.966-8.479-16.628-12.085C221.977,474.232,222.493,471.642,222.805,469.018z M200.763,466.078
		c-1.295,9.791-4.438,19.355-9.205,28.049c-4.765,8.695-11.167,16.486-18.732,22.847c-7.564,6.37-16.295,11.289-25.668,14.496
		c-9.391,3.255-19.396,4.649-29.243,4.276c-9.865-0.383-19.662-2.623-28.751-6.572c-9.096-3.931-17.451-9.594-24.49-16.551
		c-7.048-6.951-12.766-15.195-16.804-24.215c-4.061-8.996-6.451-18.88-6.949-28.738c-0.529-9.867,0.791-19.812,3.884-29.217
		c3.082-9.404,7.927-18.26,14.222-25.912c6.281-7.665,13.971-14.135,22.571-18.983c8.589-4.83,18.127-8.161,27.966-9.557
		c9.803-1.43,19.816-1.043,29.456,1.167c9.636,2.201,18.89,6.206,27.102,11.764c8.213,5.555,15.378,12.627,21.004,20.743
		c5.638,8.116,9.723,17.264,12.091,26.928C201.524,446.279,202.07,456.284,200.763,466.078z"/>
</g>
<g>
	<path fill="#282A1F" d="M406.876,179.864c0.104-0.675,0.147-1.357,0.194-2.038c1.659-0.427,3.344-0.95,4.973-1.57
		c0.004-0.925-0.054-1.847-0.131-2.767c-1.717-0.564-3.416-1.016-5.15-1.349c-0.095-0.676-0.256-1.34-0.396-2.008
		c-0.181-0.658-0.34-1.323-0.564-1.968c1.416-1.002,2.77-2.084,4.08-3.253c-0.334-0.859-0.701-1.709-1.119-2.533
		c-1.787,0.08-3.562,0.284-5.285,0.588c-0.353-0.584-0.703-1.171-1.104-1.724c-0.382-0.566-0.807-1.102-1.228-1.639
		c0.937-1.432,1.823-2.948,2.616-4.511c-0.624-0.681-1.283-1.327-1.958-1.957c-1.653,0.746-3.21,1.55-4.718,2.474
		c-0.527-0.433-1.09-0.821-1.646-1.215c-0.573-0.372-1.145-0.744-1.742-1.075c0.371-1.699,0.633-3.396,0.82-5.155
		c-0.83-0.403-1.671-0.783-2.532-1.113c-1.265,1.263-2.442,2.616-3.509,3.995c-0.653-0.199-1.311-0.384-1.977-0.532
		c-0.665-0.153-1.336-0.283-2.012-0.379c-0.27-1.702-0.635-3.415-1.102-5.1c-0.92-0.092-1.846-0.122-2.768-0.125
		c-0.723,1.643-1.328,3.312-1.82,5c-0.682,0.037-1.36,0.125-2.036,0.218c-0.675,0.101-1.347,0.221-2.012,0.377
		c-0.871-1.509-1.819-2.934-2.866-4.362c-0.882,0.263-1.762,0.542-2.619,0.882c-0.087,1.779-0.043,3.582,0.095,5.313
		c-0.611,0.302-1.229,0.594-1.817,0.942c-0.602,0.324-1.172,0.702-1.746,1.07c-1.336-1.062-2.772-2.096-4.249-3.022
		c-0.737,0.556-1.441,1.155-2.13,1.77c0.586,1.711,1.248,3.34,2.027,4.924c-0.48,0.485-0.919,1.01-1.36,1.53
		c-0.428,0.532-0.846,1.071-1.232,1.634c-1.657-0.526-3.321-0.94-5.06-1.291c-0.475,0.79-0.93,1.593-1.34,2.418
		c1.149,1.379,2.374,2.669,3.658,3.862c-0.265,0.63-0.502,1.27-0.715,1.918c-0.205,0.651-0.414,1.302-0.562,1.969
		c-1.728,0.108-3.456,0.315-5.181,0.623c-0.17,0.907-0.301,1.824-0.38,2.744c1.562,0.871,3.181,1.631,4.806,2.277
		c-0.007,0.682-0.017,1.366,0.032,2.047c0.029,0.683,0.105,1.36,0.186,2.039c-1.562,0.727-3.092,1.546-4.604,2.458
		c0.183,0.902,0.385,1.8,0.64,2.685c1.771,0.245,3.56,0.371,5.302,0.392c0.238,0.639,0.48,1.278,0.768,1.897
		c0.268,0.629,0.588,1.232,0.906,1.836c-1.188,1.235-2.347,2.566-3.406,3.951c0.483,0.787,1.016,1.544,1.566,2.285
		c1.753-0.419,3.443-0.935,5.09-1.561c0.438,0.524,0.92,1.009,1.399,1.494c0.485,0.479,0.989,0.94,1.513,1.38
		c-0.672,1.596-1.243,3.223-1.75,4.92c0.744,0.546,1.502,1.07,2.286,1.557c1.481-1.026,2.872-2.114,4.183-3.291
		c0.601,0.324,1.219,0.613,1.843,0.891c0.63,0.262,1.259,0.528,1.909,0.739c-0.053,1.733-0.004,3.465,0.139,5.218
		c0.889,0.248,1.787,0.469,2.697,0.631c1.01-1.47,1.92-3.022,2.713-4.57c0.68,0.065,1.358,0.141,2.041,0.154
		c0.682,0.041,1.365,0.018,2.048,0.008c0.578,1.606,1.257,3.237,2.024,4.805c0.92-0.086,1.831-0.226,2.739-0.384
		c0.399-1.769,0.696-3.494,0.868-5.253c0.663-0.166,1.315-0.365,1.963-0.584c0.643-0.227,1.287-0.458,1.91-0.736
		c1.124,1.308,2.334,2.571,3.617,3.759c0.83-0.404,1.633-0.865,2.42-1.348c-0.249-1.776-0.61-3.516-1.079-5.21
		c0.557-0.396,1.095-0.817,1.616-1.257c0.525-0.437,1.025-0.902,1.516-1.377c1.521,0.809,3.1,1.538,4.736,2.191
		c0.617-0.687,1.203-1.397,1.763-2.131c-0.893-1.575-1.836-3.051-2.895-4.468c0.38-0.567,0.719-1.16,1.058-1.753
		c0.316-0.604,0.639-1.207,0.91-1.833c1.725,0.213,3.445,0.32,5.209,0.342c0.327-0.861,0.629-1.735,0.877-2.624
		c-1.367-1.142-2.836-2.192-4.299-3.125C406.663,181.213,406.795,180.543,406.876,179.864z M401.178,179.104
		c-0.336,2.531-1.148,5.004-2.381,7.252c-1.231,2.248-2.887,4.262-4.842,5.906c-1.957,1.646-4.213,2.919-6.637,3.748
		c-2.428,0.841-5.014,1.201-7.561,1.105c-2.551-0.1-5.083-0.679-7.433-1.699c-2.352-1.017-4.512-2.48-6.331-4.279
		c-1.822-1.797-3.301-3.929-4.345-6.26c-1.05-2.326-1.668-4.882-1.797-7.43c-0.137-2.552,0.204-5.123,1.005-7.554
		c0.797-2.432,2.049-4.721,3.676-6.699c1.624-1.982,3.612-3.654,5.836-4.908c2.221-1.249,4.686-2.11,7.23-2.471
		c2.533-0.37,5.123-0.27,7.615,0.301c2.49,0.569,4.883,1.604,7.006,3.042c2.123,1.436,3.977,3.265,5.431,5.363
		c1.458,2.098,2.513,4.463,3.126,6.962C401.375,173.986,401.516,176.572,401.178,179.104z"/>
</g>
<path fill="#282A1F" d="M284.349,70.678l-0.175-3.428c1.252-0.499,2.498-1.041,3.738-1.627c-0.199-1.495-0.455-2.979-0.881-4.43
	c-1.373-0.068-2.736-0.094-4.088-0.076c-0.319-1.098-0.766-2.156-1.143-3.235c-0.454-1.049-0.982-2.067-1.469-3.103
	c0.971-0.945,1.908-1.922,2.829-2.94c-0.755-1.308-1.572-2.57-2.514-3.75c-1.294,0.465-2.562,0.964-3.802,1.497
	c-0.736-0.874-1.529-1.702-2.292-2.553c-0.853-0.764-1.681-1.558-2.554-2.293c0.533-1.241,1.033-2.509,1.497-3.802
	c-1.181-0.942-2.443-1.76-3.75-2.514c-1.019,0.921-1.995,1.858-2.941,2.829c-1.035-0.488-2.053-1.016-3.103-1.469
	c-1.078-0.377-2.137-0.824-3.234-1.143c0.018-1.352-0.009-2.715-0.076-4.09c-1.451-0.424-2.936-0.68-4.431-0.879
	c-0.586,1.24-1.128,2.486-1.626,3.737l-3.429-0.174l-3.429,0.174c-0.498-1.251-1.041-2.497-1.626-3.737
	c-1.495,0.199-2.979,0.455-4.431,0.879c-0.068,1.375-0.094,2.738-0.076,4.09c-1.098,0.318-2.156,0.766-3.235,1.143
	c-1.049,0.453-2.067,0.98-3.103,1.469c-0.945-0.971-1.922-1.908-2.941-2.829c-1.307,0.755-2.569,1.571-3.748,2.514
	c0.464,1.293,0.963,2.561,1.496,3.802c-0.874,0.736-1.701,1.529-2.554,2.293c-0.763,0.851-1.556,1.679-2.292,2.553
	c-1.24-0.533-2.508-1.032-3.803-1.497c-0.94,1.18-1.758,2.442-2.514,3.751c0.922,1.018,1.858,1.994,2.83,2.941
	c-0.488,1.033-1.015,2.052-1.469,3.101c-0.377,1.079-0.824,2.138-1.143,3.235c-1.352-0.018-2.715,0.008-4.089,0.076
	c-0.425,1.451-0.681,2.935-0.88,4.431c1.24,0.585,2.486,1.127,3.738,1.626l-0.174,3.428l0.174,3.428
	c-1.252,0.5-2.498,1.043-3.738,1.628c0.199,1.495,0.455,2.979,0.88,4.43c1.374,0.069,2.737,0.095,4.089,0.077
	c0.318,1.098,0.766,2.154,1.143,3.234c0.454,1.049,0.981,2.068,1.469,3.102c-0.971,0.946-1.908,1.924-2.829,2.941
	c0.755,1.307,1.572,2.57,2.514,3.75c1.294-0.464,2.562-0.964,3.802-1.496c0.736,0.873,1.529,1.701,2.292,2.553
	c0.853,0.762,1.681,1.557,2.554,2.293c-0.533,1.24-1.032,2.508-1.496,3.801c1.179,0.942,2.442,1.76,3.749,2.514
	c1.019-0.92,1.995-1.857,2.941-2.828c1.034,0.487,2.053,1.016,3.102,1.469c1.079,0.377,2.138,0.824,3.235,1.143
	c-0.018,1.352,0.008,2.715,0.077,4.089c1.45,0.425,2.935,0.681,4.43,0.88c0.585-1.24,1.128-2.486,1.626-3.737l3.429,0.173
	l3.429-0.173c0.498,1.251,1.041,2.497,1.626,3.737c1.495-0.2,2.979-0.455,4.431-0.88c0.067-1.374,0.094-2.737,0.076-4.089
	c1.098-0.318,2.156-0.766,3.234-1.143c1.05-0.453,2.067-0.981,3.104-1.469c0.945,0.971,1.922,1.908,2.94,2.828
	c1.308-0.754,2.569-1.572,3.75-2.514c-0.464-1.293-0.964-2.561-1.497-3.801c0.873-0.736,1.701-1.531,2.554-2.293
	c0.763-0.852,1.556-1.68,2.292-2.553c1.24,0.532,2.508,1.032,3.802,1.496c0.941-1.18,1.759-2.443,2.514-3.75
	c-0.921-1.018-1.858-1.995-2.829-2.941c0.488-1.035,1.015-2.053,1.469-3.102c0.377-1.08,0.823-2.137,1.143-3.234
	c1.352,0.018,2.715-0.008,4.088-0.077c0.426-1.45,0.682-2.935,0.881-4.43c-1.239-0.585-2.486-1.128-3.738-1.628L284.349,70.678z"/>
</svg>
